<?xml version="1.0" encoding="iso-8859-1"?>
<!-- Generator: Adobe Illustrator 18.0.0, SVG Export Plug-In . SVG Version: 6.00 Build 0)  -->
<!DOCTYPE svg PUBLIC "-//W3C//DTD SVG 1.1//EN" "http://www.w3.org/Graphics/SVG/1.1/DTD/svg11.dtd">
<svg version="1.1" id="Capa_1" xmlns="http://www.w3.org/2000/svg" xmlns:xlink="http://www.w3.org/1999/xlink" x="0px" y="0px"
	 viewBox="0 0 468.53 468.53" style="enable-background:new 0 0 468.53 468.53;" xml:space="preserve">
<g>
	<path d="M229.436,121.986c-1.983,0.198-5.798,1.078-7.749,1.823l-38.291,14.62c-11.859,4.528-17.801,17.812-13.273,29.67
		l1.956,5.122l24.225-26.535l-27.319,51.873c-46.304,4.729-28.91,2.953-53.045,5.418c-8.95,0.914-15.225,9.265-13.592,18.141
		c1.473,8.011,8.897,13.353,16.724,12.529l56.994-5.821l24.979-24.979l21.535-40.891l-6.791,26.147
		c6.857-6.857,54.92-54.92,61.478-61.478C245.614,123.05,237.351,121.448,229.436,121.986z"/>
	<path d="M346.167,261.229l-59.232,19.729l6.744-20.439c1.478-4.478,1.078-9.114-0.741-13.087l-2.499-5.701l-10.766,10.766
		l-31.586,31.586l-6.463,19.587c-2.128,6.449-0.436,13.546,4.373,18.341c4.808,4.795,11.909,6.467,18.353,4.321l93.165-31.031
		c9.408-3.134,14.495-13.301,11.361-22.71C365.742,263.183,355.574,258.093,346.167,261.229z"/>
	<g>
		<path d="M244.004,397.563l-28.679-80.718l-28.108,28.108l22.945,64.625c3.317,9.343,13.581,14.231,22.929,10.913
			C242.436,417.173,247.322,406.908,244.004,397.563z"/>
	</g>
	<circle cx="180.513" cy="89.961" r="34.023"/>
	<path d="M234.265,0C104.788,0,0,104.775,0,234.265C0,363.742,104.775,468.53,234.265,468.53
		c129.477,0,234.265-104.775,234.265-234.265C468.53,104.788,363.755,0,234.265,0z M40,234.265C40,127.147,127.147,40,234.265,40
		c47.925,0,92.127,17.484,126.282,46.77L86.77,360.547C57.486,326.394,40,282.193,40,234.265z M234.265,428.53
		c-47.925,0-92.127-17.484-126.282-46.77L381.76,107.983c29.284,34.154,46.77,78.355,46.77,126.282
		C428.53,341.383,341.383,428.53,234.265,428.53z"/>
</g>
<g>
</g>
<g>
</g>
<g>
</g>
<g>
</g>
<g>
</g>
<g>
</g>
<g>
</g>
<g>
</g>
<g>
</g>
<g>
</g>
<g>
</g>
<g>
</g>
<g>
</g>
<g>
</g>
<g>
</g>
</svg>
